HIERARCHY
ROOT Hips
{
    OFFSET   0.000000   0.000000   0.000000
    CHANNELS 6 Xposition Yposition Zposition Zrotation Xrotation Yrotation
    JOINT Chest
    {
        OFFSET   0.000000   8.007230   0.000000
        CHANNELS 3 Zrotation Xrotation Yrotation
        JOINT Chest2
        {
            OFFSET   0.000000  22.077100   0.000000
            CHANNELS 3 Zrotation Xrotation Yrotation
            JOINT Neck
            {
                OFFSET   0.000000  23.254800  -0.000021
                CHANNELS 3 Zrotation Xrotation Yrotation
                JOINT Head
                {
                    OFFSET   0.000000  14.370000   1.956610
                    CHANNELS 3 Zrotation Xrotation Yrotation
                    End Site
                    {
                        OFFSET   0.000000  19.566000   0.000000
                    }
                }
            }
            JOINT LeftCollar
            {
                OFFSET   3.911900  19.017000  -0.467063
                CHANNELS 3 Zrotation Xrotation Yrotation
                JOINT LeftShoulder
                {
                    OFFSET  10.383700   0.000000   0.000000
                    CHANNELS 3 Zrotation Xrotation Yrotation
                    JOINT LeftElbow
                    {
                        OFFSET  26.662100   0.001529   0.000325
                        CHANNELS 3 Zrotation Xrotation Yrotation
                        JOINT LeftWrist
                        {
                            OFFSET  28.869000  -0.000011  -0.000096
                            CHANNELS 3 Zrotation Xrotation Yrotation
                            JOINT LeftFinger0
                            {
                                OFFSET   2.044650  -2.323460   3.252850
                                CHANNELS 3 Zrotation Xrotation Yrotation
                                JOINT LeftFinger01
                                {
                                    OFFSET   3.088130   0.000000   0.000000
                                    CHANNELS 3 Zrotation Xrotation Yrotation
                                    JOINT LeftFinger02
                                    {
                                        OFFSET   2.639460   0.000000   0.000000
                                        CHANNELS 3 Zrotation Xrotation Yrotation
                                        End Site
                                        {
                                            OFFSET   2.582190   0.000000   0.000000
                                        }
                                    }
                                }
                            }
                            JOINT LeftFinger1
                            {
                                OFFSET   8.364480   0.000000   3.252850
                                CHANNELS 3 Zrotation Xrotation Yrotation
                                JOINT LeftFinger11
                                {
                                    OFFSET   4.646930   0.000000   0.000000
                                    CHANNELS 3 Zrotation Xrotation Yrotation
                                    JOINT LeftFinger12
                                    {
                                        OFFSET   2.323460   0.000000   0.000000
                                        CHANNELS 3 Zrotation Xrotation Yrotation
                                        End Site
                                        {
                                            OFFSET   2.273050   0.000000   0.000000
                                        }
                                    }
                                }
                            }
                            JOINT LeftFinger2
                            {
                                OFFSET   8.364480   0.000016   1.078090
                                CHANNELS 3 Zrotation Xrotation Yrotation
                                JOINT LeftFinger21
                                {
                                    OFFSET   5.111620   0.000000   0.000000
                                    CHANNELS 3 Zrotation Xrotation Yrotation
                                    JOINT LeftFinger22
                                    {
                                        OFFSET   2.788160   0.000017   0.000000
                                        CHANNELS 3 Zrotation Xrotation Yrotation
                                        End Site
                                        {
                                            OFFSET   2.727660   0.000000   0.000000
                                        }
                                    }
                                }
                            }
                            JOINT LeftFinger3
                            {
                                OFFSET   7.899780   0.000015  -1.078090
                                CHANNELS 3 Zrotation Xrotation Yrotation
                                JOINT LeftFinger31
                                {
                                    OFFSET   4.646920   0.000000   0.000000
                                    CHANNELS 3 Zrotation Xrotation Yrotation
                                    JOINT LeftFinger32
                                    {
                                        OFFSET   2.323470   0.000000   0.000000
                                        CHANNELS 3 Zrotation Xrotation Yrotation
                                        End Site
                                        {
                                            OFFSET   2.273050   0.000000   0.000000
                                        }
                                    }
                                }
                            }
                            JOINT LeftFinger4
                            {
                                OFFSET   7.435090   0.000000  -3.252850
                                CHANNELS 3 Zrotation Xrotation Yrotation
                                JOINT LeftFinger41
                                {
                                    OFFSET   3.717550   0.000000   0.000000
                                    CHANNELS 3 Zrotation Xrotation Yrotation
                                    JOINT LeftFinger42
                                    {
                                        OFFSET   1.858760   0.000000   0.000000
                                        CHANNELS 3 Zrotation Xrotation Yrotation
                                        End Site
                                        {
                                            OFFSET   1.818440   0.000000   0.000000
                                        }
                                    }
                                }
                            }
                        }
                    }
                }
            }
            JOINT RightCollar
            {
                OFFSET  -3.911900  19.017000  -0.467062
                CHANNELS 3 Zrotation Xrotation Yrotation
                JOINT RightShoulder
                {
                    OFFSET -10.383700   0.000015   0.000000
                    CHANNELS 3 Zrotation Xrotation Yrotation
                    JOINT RightElbow
                    {
                        OFFSET -26.662100   0.001341   0.000385
                        CHANNELS 3 Zrotation Xrotation Yrotation
                        JOINT RightWrist
                        {
                            OFFSET -28.869000   0.000025  -0.000080
                            CHANNELS 3 Zrotation Xrotation Yrotation
                            JOINT RightFinger0
                            {
                                OFFSET  -2.044650  -2.323490   3.252850
                                CHANNELS 3 Zrotation Xrotation Yrotation
                                JOINT RightFinger01
                                {
                                    OFFSET  -3.088130   0.000000   0.000000
                                    CHANNELS 3 Zrotation Xrotation Yrotation
                                    JOINT RightFinger02
                                    {
                                        OFFSET  -2.639460   0.000000   0.000000
                                        CHANNELS 3 Zrotation Xrotation Yrotation
                                        End Site
                                        {
                                            OFFSET  -2.582190   0.000000   0.000000
                                        }
                                    }
                                }
                            }
                            JOINT RightFinger1
                            {
                                OFFSET  -8.364480   0.000000   3.252850
                                CHANNELS 3 Zrotation Xrotation Yrotation
                                JOINT RightFinger11
                                {
                                    OFFSET  -4.646930   0.000000   0.000000
                                    CHANNELS 3 Zrotation Xrotation Yrotation
                                    JOINT RightFinger12
                                    {
                                        OFFSET  -2.323470   0.000000   0.000000
                                        CHANNELS 3 Zrotation Xrotation Yrotation
                                        End Site
                                        {
                                            OFFSET  -2.273050   0.000000   0.000000
                                        }
                                    }
                                }
                            }
                            JOINT RightFinger2
                            {
                                OFFSET  -8.364480   0.000000   1.078090
                                CHANNELS 3 Zrotation Xrotation Yrotation
                                JOINT RightFinger21
                                {
                                    OFFSET  -5.111610   0.000000   0.000000
                                    CHANNELS 3 Zrotation Xrotation Yrotation
                                    JOINT RightFinger22
                                    {
                                        OFFSET  -2.788160   0.000000   0.000000
                                        CHANNELS 3 Zrotation Xrotation Yrotation
                                        End Site
                                        {
                                            OFFSET  -2.727660   0.000000   0.000000
                                        }
                                    }
                                }
                            }
                            JOINT RightFinger3
                            {
                                OFFSET  -7.899780   0.000000  -1.078090
                                CHANNELS 3 Zrotation Xrotation Yrotation
                                JOINT RightFinger31
                                {
                                    OFFSET  -4.646920   0.000000   0.000000
                                    CHANNELS 3 Zrotation Xrotation Yrotation
                                    JOINT RightFinger32
                                    {
                                        OFFSET  -2.323470   0.000000   0.000000
                                        CHANNELS 3 Zrotation Xrotation Yrotation
                                        End Site
                                        {
                                            OFFSET  -2.273050   0.000000   0.000000
                                        }
                                    }
                                }
                            }
                            JOINT RightFinger4
                            {
                                OFFSET  -7.435090   0.000000  -3.252850
                                CHANNELS 3 Zrotation Xrotation Yrotation
                                JOINT RightFinger41
                                {
                                    OFFSET  -3.717550   0.000000   0.000000
                                    CHANNELS 3 Zrotation Xrotation Yrotation
                                    JOINT RightFinger42
                                    {
                                        OFFSET  -1.858770   0.000000   0.000000
                                        CHANNELS 3 Zrotation Xrotation Yrotation
                                        End Site
                                        {
                                            OFFSET  -1.818440   0.000000   0.000000
                                        }
                                    }
                                }
                            }
                        }
                    }
                }
            }
        }
    }
    JOINT LeftHip
    {
        OFFSET   9.783010   0.000000   0.000000
        CHANNELS 3 Zrotation Xrotation Yrotation
        JOINT LeftKnee
        {
            OFFSET   0.000070 -41.789100   0.000028
            CHANNELS 3 Zrotation Xrotation Yrotation
            JOINT LeftAnkle
            {
                OFFSET   0.000087 -41.133200  -0.000100
                CHANNELS 3 Zrotation Xrotation Yrotation
                JOINT LeftToe
                {
                    OFFSET   0.000000  -6.358960  14.674500
                    CHANNELS 3 Zrotation Xrotation Yrotation
                    End Site
                    {
                        OFFSET   0.000000   0.000000   3.913200
                    }
                }
            }
        }
    }
    JOINT RightHip
    {
        OFFSET  -9.783020   0.000000   0.000000
        CHANNELS 3 Zrotation Xrotation Yrotation
        JOINT RightKnee
        {
            OFFSET   0.000044 -41.789100  -0.000870
            CHANNELS 3 Zrotation Xrotation Yrotation
            JOINT RightAnkle
            {
                OFFSET  -0.000090 -41.133200  -0.000245
                CHANNELS 3 Zrotation Xrotation Yrotation
                JOINT RightToe
                {
                    OFFSET   0.000000  -6.358960  14.674500
                    CHANNELS 3 Zrotation Xrotation Yrotation
                    End Site
                    {
                        OFFSET   0.000000   0.000000   3.913200
                    }
                }
            }
        }
    }
}
MOTION
Frames: 5
Frame Time:   0.016667
 -0.250177  89.424600  -1.930460  -2.305840  -9.013160  -7.010060   2.070780   7.090960  -1.801490   4.418040  14.107500  -3.907280   6.554500   3.722520  -0.427382  10.889100   7.252610  11.503500  -3.507270   1.985340   7.705550 -79.618700   7.938540  -3.412460  -0.476612   3.442040 -17.844400   6.524580  -3.226940  -1.777030  39.273800  32.575500 -51.646900 -32.962600  -0.002742   0.004894 -11.481200   0.004970   0.001562 -26.391100  -1.505900   3.031580 -21.625400   0.001201  -0.003030 -15.137800  -0.002800  -0.002102 -28.194700  -3.615890   6.709800 -35.179700  -0.001632  -0.001630 -23.429600   0.004867  -0.001088 -24.637900  -3.224850   6.992730 -24.835100  -0.001087   0.000172 -16.540100   0.004102  -0.001706 -24.953400  -3.579420   7.641770 -37.788800  -0.000730  -0.000878 -25.167300  -0.001172   0.001553   7.726210   6.577510   7.184530  77.653800 -38.924900  45.539100  -8.498000 -21.247500  52.661900 -110.231000 -81.128300 -94.035500 -42.311200  32.329600  65.872300  25.013400  -0.003095   0.001531   7.506700  -0.002084   0.004980  15.712900   1.066710   3.784730  12.884800   0.004923   0.005613   9.019370   0.004155   0.007623  13.015200  -1.084040  -4.682800  13.059300   0.010930   0.006843   8.697510   0.004606   0.007164  19.726500  -1.625110  -4.523900  19.790500   0.003948   0.003924  13.180500   0.002215   0.005831  21.888800  -2.473320  -6.129610  33.032200   0.005176   0.001703  21.999400   0.003660  -0.000702   3.959940  10.679600   1.542070   0.123057   1.922490  15.891200  -4.188250  -2.961570   0.568461  -0.000000   0.000000   0.000000  -0.361963   8.247070  -2.525720  -0.771475   4.831280 -12.149700   2.729010  -3.702920   8.492850  -0.000000   0.000000  -0.000000
 -0.271183  89.424600  -1.899890  -2.299990  -9.001370  -6.959980   2.044070   7.066740  -1.796230   4.362200  14.060300  -3.892060   6.480260   3.712060  -0.421319  10.765500   7.239120  11.541900  -3.513450   1.983490   7.721540 -79.639100   7.832170  -3.324640  -0.456121   3.535450 -17.872800   6.516370  -3.212870  -1.793730  39.258100  32.544500 -51.670600 -32.956600  -0.002811   0.005056 -11.478200   0.005061   0.001644 -26.400100  -1.497090   3.012800 -21.632500   0.001280  -0.003017 -15.142400  -0.002829  -0.002095 -28.199500  -3.614150   6.703740 -35.233200  -0.001596  -0.001630 -23.465300   0.004845  -0.001088 -24.649700  -3.213670   6.965220 -24.845300  -0.001053   0.000147 -16.546900   0.004026  -0.001683 -24.970600  -3.572870   7.621960 -37.813100  -0.000705  -0.000903 -25.183500  -0.001135   0.001490   7.725780   6.590330   7.178480  77.545400 -38.929900  45.361400  -8.563620 -21.362400  52.622600 -109.791000 -81.251200 -93.666300 -42.276100  32.323400  65.860100  25.094900  -0.003550   0.001752   7.547450  -0.002169   0.005131  16.141600   1.065690   3.694980  13.234200   0.005177   0.005418   9.263930   0.004273   0.007560  13.575600  -1.163420  -4.824660  13.623200   0.011304   0.006919   9.073050   0.005113   0.007397  20.168700  -1.714200  -4.658890  20.237100   0.004115   0.004000  13.478000   0.002472   0.006147  22.295800  -2.476790  -6.000110  33.638700   0.005440   0.001804  22.403400   0.003801  -0.000739   3.980060  10.686400   1.533570   0.130226   1.913310  15.868700  -4.210060  -2.969360   0.548037  -0.000000   0.000000  -0.000000  -0.342189   8.156610  -2.546290  -0.764941   4.938140 -12.153900   2.704270  -3.711030   8.456050  -0.000000   0.000000   0.000000
 -0.290488  89.424800  -1.868930  -2.289020  -8.989160  -6.896900   2.015980   7.043470  -1.792140   4.303760  14.015000  -3.879100   6.404820   3.702000  -0.415262  10.639600   7.226380  11.610300  -3.519170   1.981310   7.731330 -79.656800   7.741700  -3.247260  -0.440950   3.620310 -17.923200   6.498450  -3.193030  -1.821000  39.251300  32.518500 -51.685700 -32.948000  -0.002880   0.005218 -11.474000   0.005151   0.001727 -26.404000  -1.491210   3.000490 -21.635200   0.001359  -0.003004 -15.144000  -0.002858  -0.002086 -28.206200  -3.613900   6.702880 -35.289400  -0.001557  -0.001629 -23.502700   0.004823  -0.001088 -24.657000  -3.207400   6.949270 -24.851800  -0.001017   0.000121 -16.551300   0.003950  -0.001660 -24.986200  -3.570260   7.611260 -37.835700  -0.000678  -0.000928 -25.198600  -0.001096   0.001427   7.728610   6.599940   7.172330  77.431900 -38.935200  45.174200  -8.622660 -21.445900  52.570300 -109.493000 -81.454600 -93.472500 -42.168300  32.332500  65.848500  25.253200  -0.003996   0.001978   7.626610  -0.002252   0.005284  16.627400   1.064730   3.555910  13.629900   0.005442   0.005238   9.540920   0.004408   0.007498  14.260200  -1.279850  -5.048320  14.313300   0.011524   0.006998   9.532680   0.005632   0.007633  20.647100  -1.839980  -4.875270  20.722300   0.004302   0.004091  13.801100   0.002736   0.006455  22.762900  -2.485780  -5.906480  34.336400   0.005731   0.001907  22.868100   0.003960  -0.000784   3.996920  10.693200   1.525070   0.135881   1.908340  15.834500  -4.231070  -2.977230   0.527032  -0.000000   0.000000   0.000000  -0.331922   8.066150  -2.566460  -0.758284   5.044970 -12.159300   2.666940  -3.717940   8.409980  -0.000000   0.000000   0.000000
 -0.306966  89.424900  -1.840840  -2.274030  -8.967030  -6.819490   1.987430   7.020180  -1.786190   4.244200  13.969700  -3.862340   6.332140   3.688320  -0.408979  10.518100   7.206100  11.681300  -3.526980   1.972550   7.725080 -79.660700   7.680810  -3.187610  -0.445415   3.668800 -17.973500   6.467980  -3.180050  -1.850510  39.260400  32.511900 -51.699400 -32.930600  -0.002942   0.005373 -11.465300   0.005235   0.001816 -26.404500  -1.482030   2.981850 -21.634900   0.001442  -0.002992 -15.143900  -0.002890  -0.002078 -28.209400  -3.619940   6.713420 -35.327000  -0.001516  -0.001629 -23.527800   0.004801  -0.001086 -24.659200  -3.203530   6.939620 -24.853600  -0.000976   0.000098 -16.552500   0.003875  -0.001640 -25.000100  -3.566000   7.598690 -37.855600  -0.000647  -0.000954 -25.211900  -0.001055   0.001365   7.745040   6.596150   7.159700  77.305800 -38.966500  44.981700  -8.729590 -21.394400  52.451200 -109.322000 -81.665500 -93.457900 -42.178800  32.667200  66.052000  25.612300  -0.004428   0.002168   7.806130  -0.002343   0.005436  17.021200   1.029610   3.328570  13.948300   0.005716   0.005072   9.763810   0.004560   0.007439  14.983400  -1.454160  -5.439450  15.046700   0.011506   0.007090  10.021100   0.006161   0.007871  21.016500  -2.023760  -5.259360  21.103800   0.004511   0.004198  14.055200   0.003007   0.006759  23.181700  -2.520920  -5.912230  34.966100   0.006051   0.002010  23.287500   0.004141  -0.000831   4.012460  10.683400   1.527830   0.141559   1.910050  15.774400  -4.248150  -2.988170   0.507617   0.000000   0.000000  -0.000000  -0.332698   8.180950  -2.560000  -0.728899   4.931890 -12.196900   2.642420  -3.736350   8.353770   0.000000   0.000000   0.000000
 -0.320739  89.425300  -1.815020  -2.255210  -8.932200  -6.727900   1.958870   6.993640  -1.776070   4.183960  13.918100  -3.837020   6.255800   3.668850  -0.401879  10.390200   7.174550  11.742200  -3.537390   1.963030   7.703530 -79.652300   7.641140  -3.148940  -0.458290   3.698590 -18.026900   6.438360  -3.167050  -1.880590  39.270100  32.510700 -51.703700 -32.908700  -0.003002   0.005525 -11.454400   0.005316   0.001910 -26.402300  -1.472120   2.962410 -21.633000   0.001528  -0.002978 -15.143100  -0.002923  -0.002070 -28.211200  -3.629260   6.729700 -35.356100  -0.001473  -0.001629 -23.547200   0.004779  -0.001082 -24.659700  -3.202460   6.936950 -24.853900  -0.000935   0.000073 -16.552700   0.003800  -0.001616 -25.007700  -3.562240   7.588560 -37.865900  -0.000613  -0.000979 -25.218700  -0.001012   0.001304   7.770150   6.580270   7.139600  77.125900 -38.997300  44.718500  -8.884950 -21.257200  52.322100 -108.966000 -81.795100 -93.306000 -42.296000  33.320600  66.617700  26.088300  -0.004846   0.002379   8.044120  -0.002428   0.005586  17.404400   0.957493   3.035430  14.256800   0.006002   0.004926   9.979740   0.004732   0.007383  15.734200  -1.662390  -5.905220  15.812800   0.011376   0.007182  10.531300   0.006696   0.008111  21.329200  -2.236230  -5.719540  21.434000   0.004744   0.004323  14.275000   0.003285   0.007051  23.543000  -2.600670  -5.951760  35.512100   0.006402   0.002116  23.651100   0.004344  -0.000887   4.023720  10.646800   1.539280   0.150809   1.918790  15.695700  -4.259860  -3.000620   0.486331   0.000000   0.000000   0.000000  -0.334370   8.295790  -2.547510  -0.698113   4.818520 -12.252900   2.629150  -3.759790   8.284060   0.000000   0.000000   0.000000
